<svg xmlns="http://www.w3.org/2000/svg" viewBox="0 0 135.3 66"><defs><style>.b321df22-e183-4952-ae57-4c2b1791f943{fill:#fff;}</style></defs><g id="fc37d2ab-5c30-4892-8fb6-fe745bcb0717" data-name="Layer 2"><g id="bb16dacd-aad8-44a2-ba6a-50c3b6660566" data-name="Layer 1"><path class="b321df22-e183-4952-ae57-4c2b1791f943" d="M135.3,38.1V66H40.09V62.7H36.8V66H0V0H7.16l0,3.63H3.9V6.92H.39V38.06H3.9v3.62H7.18v3.4H43.72v7.15H40.26V62.32H50.55V59.09h3.28V55.46h3.61V52.18l3.39-.25c0-.69,0-1.33,0-2,.06-1.58-.44-3.77.38-4.57s3-.33,4.58-.33h62.59V41.68H132V38.07Z"/><path d="M7.19,3.63,7.16,0H128.41c0,1.21,0,2.41,0,3.62-.65,0-1.29-.1-1.94-.1H8.78c-.55,0-1.1,0-1.64.06Z"/><path d="M135.3,38.1l-3.31,0,0,0q0-15.63,0-31.24l3.31,0Z"/><path class="b321df22-e183-4952-ae57-4c2b1791f943" d="M135.3,6.9l-3.31,0,0,0V3.59H128.4l0,0,0-3.62h6.89Z"/><path d="M36.8,66V62.7h3.29V66Z"/><path d="M128.38,41.68v3.38H65.79c-1.58,0-3.74-.49-4.58.33s-.32,3-.38,4.57c0,.63,0,1.27,0,2l-3.39.25,0,0V41.69h44.46l26.49,0Z"/><path d="M43.72,52.23V45.08H7.18v-3.4l0,0H46.91V52.18H43.67Z"/><path d="M3.9,38.06H.39V6.92H3.9l0,0c0,5.43-.08,10.86-.08,16.29,0,5,0,10,.08,14.95Z"/><path d="M50.55,59.09v3.23H40.26V52.23h3.46l0,0v7H50.6Z"/><path d="M132,38.07v3.61h-3.61l.05,0v-3.6H132Z"/><path d="M7.18,41.68H3.9V38.06l0,.06H7.13v3.6Z"/><path d="M57.44,52.18v3.28H53.83l.05.06.17-3.29h3.43Z"/><path d="M53.83,55.46v3.63H50.55l.05,0V55.52h3.28Z"/><path d="M3.9,6.92V3.63H7.19l-.05,0v3.3H3.85Z"/><path class="b321df22-e183-4952-ae57-4c2b1791f943" d="M3.85,6.88H7.14V3.58c.54,0,1.09-.06,1.64-.06H126.49c.65,0,1.29.07,1.94.1l0,0,.16,3.32H132l0,0q0,15.62,0,31.24h-3.6v3.6l-26.49,0H57.48V52.23H54.05l-.17,3.29H50.6v3.61H43.67v-7h3.24V41.72H7.13v-3.6H3.85c0-5-.08-10-.08-14.95C3.77,17.74,3.82,12.31,3.85,6.88Z"/><path d="M132,6.91h-3.46l-.16-3.32H132Z"/></g></g></svg>