<svg xmlns="http://www.w3.org/2000/svg" viewBox="0 0 135.3 66"><defs><style>.a09aa135-6cbb-40d3-80ba-5492985bd730{fill:#fff;}</style></defs><g id="abdb0fb8-91de-480f-b471-79f44f15144b" data-name="Layer 2"><g id="a35ed09d-0582-44e0-a83d-a95e015b82a4" data-name="Layer 1"><path class="a09aa135-6cbb-40d3-80ba-5492985bd730" d="M0,28.07V0H135.3V28.07l-3.64,0V24.5h-3.28V21.11H91.76V14h3.48V4H84.92V7.17H81.64v3.6H78v3.28l-3.4.24c0,.69,0,1.33,0,2-.06,1.57.45,3.75-.38,4.54s-3,.33-4.59.33q-30.42,0-60.83,0H6.93V24.5H3.31v3.6ZM98.64,3.59V.4H95.49V3.59Z"/><path d="M128.4,66H6.9c0-1.2,0-2.4,0-3.6.54,0,1.09.09,1.64.09H126.79c.55,0,1.09-.07,1.64-.11Z"/><path d="M131.66,28.11l3.64,0V59.13l-3.64,0c.05-.54.14-1.08.14-1.62q0-10.12,0-20.26c0-3.08-.05-6.16-.08-9.23Z"/><path d="M0,28.07l3.31,0,0-.05,0,31.1L0,59.13Z"/><path class="a09aa135-6cbb-40d3-80ba-5492985bd730" d="M131.66,59.16l3.64,0V66h-6.9l0-3.62-.05,0h3.34V59.11Z"/><path class="a09aa135-6cbb-40d3-80ba-5492985bd730" d="M0,59.13l3.31,0,0,0v3.31H6.92l0,0V66H0Z"/><path d="M6.93,24.5V21.13H8.82q30.42,0,60.83,0c1.58,0,3.74.49,4.59-.33s.32-3,.38-4.54c0-.63,0-1.27,0-2l3.4-.24L78,14V24.49H76q-21.3,0-42.59,0l-26.55,0Z"/><path d="M91.76,14v7.11h36.62V24.5l.05,0H88.57V14.05h3.25Z"/><path d="M84.92,7.17V4H95.24V14H91.76l.06.05V7.13H84.87Z"/><path d="M3.31,28.1V24.5H6.93l0,0v3.59H3.28Z"/><path d="M81.64,10.77V7.17h3.28l0,0v3.59H81.58Z"/><path d="M78,14.05V10.77h3.62l-.06,0L81.42,14H78Z"/><path d="M128.38,24.5h3.28v3.61l.06-.06h-3.29V24.46Z"/><path d="M98.64,3.59H95.49V.4h3.15Z"/><path class="a09aa135-6cbb-40d3-80ba-5492985bd730" d="M128.43,24.46v3.59h3.29c0,3.07.07,6.15.08,9.23q0,10.13,0,20.26c0,.54-.09,1.08-.14,1.62l.06,0h-3.34v3.32l.05,0c-.55,0-1.09.11-1.64.11H8.53c-.55,0-1.1-.06-1.64-.09l0,0-.16-3.31H3.28l0,0,0-31.1h3.6V24.46l26.55,0q21.28,0,42.59,0h2V14h3.44l.16-3.28h3.29V7.13h6.95v6.92H88.57V24.46Z"/><path d="M128.38,62.43V59.11h3.34v3.32Z"/><path d="M3.28,59.12H6.76l.16,3.31H3.28Z"/></g></g></svg>