<svg xmlns="http://www.w3.org/2000/svg" viewBox="0 0 236.4 75"><defs><style>.f2e1dabf-b896-4bd1-a301-9078c01ad826{fill:#fff;}</style></defs><g id="a5afae34-5d0d-4913-84f0-6a89eb470167" data-name="Layer 2"><g id="be028207-dafa-4ab7-bd3e-66f17cf7dfcc" data-name="Layer 1"><path d="M229.5,75H6.9c0-1.21,0-2.41,0-3.62.59,0,1.19.1,1.79.1H227.74c.6,0,1.19-.08,1.79-.11Z"/><path d="M170.4,0h24.3a14.32,14.32,0,0,0,1.71.23h31.25c.57,0,1.14,0,1.71.07.06,1.23.11,2.27.15,3.31H6.89V.24H55.28A14.48,14.48,0,0,0,57,0H69.3a10.43,10.43,0,0,0,1.57.23h98A10.43,10.43,0,0,0,170.4,0Z"/><path d="M236.4,7.2V68.1l-3.64,0a14.61,14.61,0,0,0,.14-1.47v-58c0-.49-.08-1-.12-1.48Z"/><path d="M0,68.1V7.2H3.31q0,30.46,0,60.93Z"/><path class="f2e1dabf-b896-4bd1-a301-9078c01ad826" d="M3.31,7.19H0V0H57a14.48,14.48,0,0,1-1.72.23H6.89V3.61l0,0H3.28V7.22Z"/><path class="f2e1dabf-b896-4bd1-a301-9078c01ad826" d="M236.4,7.2h-3.62l0,0V3.58h-3.33l0,0c0-1-.09-2.08-.15-3.31-.57,0-1.14-.07-1.71-.07H196.41A14.32,14.32,0,0,1,194.7,0h41.7Z"/><path class="f2e1dabf-b896-4bd1-a301-9078c01ad826" d="M232.76,68.13l3.64,0V75h-6.9l0-3.63-.05,0h3.34V68.08Z"/><path class="f2e1dabf-b896-4bd1-a301-9078c01ad826" d="M0,68.1l3.32,0,0,0v3.32H6.92l0,0V75H0Z"/><path class="f2e1dabf-b896-4bd1-a301-9078c01ad826" d="M170.4,0a10.43,10.43,0,0,1-1.57.23h-98A10.43,10.43,0,0,1,69.3,0Z"/><path class="f2e1dabf-b896-4bd1-a301-9078c01ad826" d="M3.32,68.12q0-30.47,0-60.93l0,0L6.92,7V3.58l0,0H229.52l0,0V7l3.33.2,0,0c0,.49.12,1,.12,1.48v58a14.61,14.61,0,0,1-.14,1.47l.06,0h-3.34v3.34l.05,0c-.6,0-1.19.11-1.79.11H8.68c-.6,0-1.2-.07-1.79-.1l0,0-.16-3.32H3.28Z"/><path d="M6.92,3.58V7l-3.64.23V3.58Z"/><path d="M232.81,7.22,229.48,7V3.58h3.33Z"/><path d="M229.48,71.42V68.08h3.34v3.34Z"/><path d="M3.28,68.09H6.76l.16,3.32H3.28Z"/></g></g></svg>